{"title":"Six.Nations.Rugby.Union-Italy.v.Ireland-2013.03.16.720p.x264 ","uid":8268749,"size":3182661443,"categoryP":"video","categoryS":"hd___tv_shows","magnet":"?xt=urn:btih:db2889c3898590fc283b44fb9fad89a009761cb3&amp;dn=Six.Nations.Rugby.Union-Italy.v.Ireland-2013.03.16.720p.x264+&amp;tr=udp%3A%2F%2Ftracker.openbittorrent.com%3A80&amp;tr=udp%3A%2F%2Fopen.demonii.com%3A1337&amp;tr=udp%3A%2F%2Ftracker.coppersurfer.tk%3A6969&amp;tr=udp%3A%2F%2Fexodus.desync.com%3A6969","seeders":1,"leechers":0,"uploader":"rugbybill","files":4,"time":1363559732,"description":"SPORT: Six Nations Rugby Union - Italy v Ireland\nOn: BBC 1 HD \nDate: Saturday 16th March 2013 \nTime: KO 14:30\n\nLive coverage of Italy v Ireland on the last day of the 2013 Six Nations. The Italians will be hoping to finish the tournament in the manner they started, following an incredible win over France on the opening weekend. However, they will have to defy history if they are to beat Ireland - they have not beaten them in 13 previous Six Nations encounters, including a 42-10 loss last year. For Ireland's players it will be a last chance to impress on the international stage before the British and Irish Lions squad is picked for the tour of Australia this summer. Commentary by Conor McNamara and Phillip Matthews, with expert analysis from Italian legend Marco Bortolami.\n\n[2.96Gb, 115mins, 1280x720[16:9], 3541Kbps, x264/mp4; Audio: AAC-LC, 124Kbps]\n\nGeneral\nComplete name: 2013.03.16.6N.Italy.v.Ireland.720p.x264.mp4\nFormat: MPEG-4\nFormat profile: Base Media\nCodec ID: isom\nFile size: 2.96 GiB\nDuration: 1h 55mn\nOverall bit rate mode: Variable\nOverall bit rate: 3 669 Kbps\n\nVideo\nID: 1\nFormat: AVC\nFormat/Info: Advanced Video Codec\nFormat profile: &lt;a class=&quot;__cf_email__&quot; href=&quot;/cdn-cgi/l/email-protection&quot; data-cfemail=&quot;4c04252b240c0078627d&quot;&gt;[email&amp;#160;protected]&lt;/a&gt;&lt;script cf-hash='f9e31' type=&quot;text/javascript&quot;&gt;\n/* &lt;![CDATA[ */!function(){try{var t=&quot;currentScript&quot;in document?document.currentScript:function(){for(var t=document.getElementsByTagName(&quot;script&quot;),e=t.length;e--;)if(t[e].getAttribute(&quot;cf-hash&quot;))return t[e]}();if(t&amp;&amp;t.previousSibling){var e,r,n,i,c=t.previousSibling,a=c.getAttribute(&quot;data-cfemail&quot;);if(a){for(e=&quot;&quot;,r=parseInt(a.substr(0,2),16),n=2;a.length-n;n+=2)i=parseInt(a.substr(n,2),16)^r,e+=String.fromCharCode(i);e=document.createTextNode(e),c.parentNode.replaceChild(e,c)}}}catch(u){}}();/* ]]&gt; */&lt;/script&gt;\nFormat settings, CABAC: Yes\nFormat settings, ReFrames: 4 frames\nCodec ID: avc1\nCodec ID/Info: Advanced Video Coding\nDuration: 1h 55mn\nBit rate: 3 541 Kbps\nMaximum bit rate: 11.6 Mbps\nWidth: 1 280 pixels\nHeight: 720 pixels\nDisplay aspect ratio: 16:9\nFrame rate mode: Constant\nFrame rate: 25.000 fps\nColor space: YUV\nChroma subsampling: 4:2:0\nBit depth: 8 bits\nScan type: Progressive\nBits/(Pixel*Frame): 0.154\nStream size: 2.86 GiB (97%)\nWriting library: x264 core 130 r2273 b3065e6\n\nAudio\nID: 2\nFormat: AAC\nFormat/Info: Advanced Audio Codec\nFormat profile: LC\nCodec ID: 40\nDuration: 1h 55mn\nBit rate mode: Variable\nBit rate: 124 Kbps\nMaximum bit rate: 129 Kbps\nChannel(s): 2 channels\nChannel positions: Front: L R\nSampling rate: 48.0 KHz\nCompression mode: Lossy\nStream size: 102 MiB (3%)","torrent":{"xt":"urn:btih:db2889c3898590fc283b44fb9fad89a009761cb3","amp;dn":"Six.Nations.Rugby.Union-Italy.v.Ireland-2013.03.16.720p.x264+","amp;tr":["udp%3A%2F%2Ftracker.openbittorrent.com%3A80","udp%3A%2F%2Fopen.demonii.com%3A1337","udp%3A%2F%2Ftracker.coppersurfer.tk%3A6969","udp%3A%2F%2Fexodus.desync.com%3A6969"],"infoHash":"db2889c3898590fc283b44fb9fad89a009761cb3","infoHashBuffer":{"type":"Buffer","data":[219,40,137,195,137,133,144,252,40,59,68,251,159,173,137,160,9,118,28,179]},"announce":[],"urlList":[]}}